<svg xmlns="http://www.w3.org/2000/svg" xmlns:xlink="http://www.w3.org/1999/xlink" aria-hidden="true" role="img" class="iconify iconify--logos" width="31.88" height="32" preserveAspectRatio="xMidYMid meet" viewBox="0 0 256 257"><defs><linearGradient id="IconifyId1813088fe1fbc01fb466" x1="-.828%" x2="57.636%" y1="7.652%" y2="78.411%"><stop offset="0%" stop-color="#FF00FF"></stop><stop offset="100%" stop-color="#FF8C00"></stop></linearGradient></defs><path fill="url(#IconifyId1813088fe1fbc01fb466)" d="M255.153 37.938L134.897 252.976c-2.483 4.144-8.861 4.553-12.064 1.074L.270 156.994c-3.047-2.460-4.627-6.571-3.936-10.647l10.823-59.921c.56-3.080 3.735-5.23 6.910-5.23h21.st-3.134L69.553 71.472a6.036 6.036 0 0 1 5.744 1.32l55.038 44.466a8.6 8.6 0 0 0 8.9.092l93.46-68.681a8.6 8.6 0 0 0 4.86-7.99V17.463a8.6 8.6 0 0 0-12.1-7.98l-5.5 4.4z"></path></svg>
